# xmcd
#
# Track frame offsets:
#	150
#	19746
#	46480
#	68757
#	89619
#	108385
#	125050
#	142799
#	161337
#	183960
#	199229
#	215661
#	234721
#	251402
#	277630
#	288520
#	307728
#
# Disc length: 4320 seconds
#
# Revision: 2
# Processed by: cddbd v1.5PL3 Copyright (c) Steve Scherf et al.
# Submitted via: EZCDDA 4.3.2
#
DISCID=ee10de11
DTITLE=Various Artist - Do U Know Voice ?
DYEAR=1900
DGENRE=
TTITLE0=The Sound Of Silence  (Simon and Garfunkel)
TTITLE1=Losing My Religion (R.E.M)
TTITLE2=To The Wall
TTITLE3=When I Fall In Love
TTITLE4=Emotion/How Deep Is Your Love
TTITLE5=El Paisanito (Argentina)
TTITLE6=Ciao Bello Ciao (Italy)
TTITLE7=Dry Your Eyes
TTITLE8=당신을 사랑 받기 위해 태어난 사람
TTITLE9=아디오스 UFO
TTITLE10=For The Beauty Of The Earth
TTITLE11=Salve
TTITLE12=Sanctus-Pachelbel Canon In D
TTITLE13=Chorale VI and Cantus
TTITLE14=Unchained Melody
TTITLE15=Space Oddity (live)
TTITLE16=Per crucem(Kanon)
EXTD=mrjea@naver.com
EXTT0=
EXTT1=
EXTT2=
EXTT3=
EXTT4=
EXTT5=
EXTT6=
EXTT7=
EXTT8=
EXTT9=
EXTT10=
EXTT11=
EXTT12=
EXTT13=
EXTT14=
EXTT15=
EXTT16=
PLAYORDER=
